<?xml version="1.0" encoding="UTF-8" standalone="no"?>
<!-- Created with Inkscape (http://www.inkscape.org/) -->

<svg
   xmlns:dc="http://purl.org/dc/elements/1.1/"
   xmlns:cc="http://creativecommons.org/ns#"
   xmlns:rdf="http://www.w3.org/1999/02/22-rdf-syntax-ns#"
   xmlns:svg="http://www.w3.org/2000/svg"
   xmlns="http://www.w3.org/2000/svg"
   xmlns:sodipodi="http://sodipodi.sourceforge.net/DTD/sodipodi-0.dtd"
   xmlns:inkscape="http://www.inkscape.org/namespaces/inkscape"
   id="svg2"
   version="1.1"
   inkscape:version="0.91 r"
   xml:space="preserve"
   width="990"
   height="993.70001"
   viewBox="0 0 990 993.70001"
   sodipodi:docname="sciencehacklogo.svg"><metadata
     id="metadata8"><rdf:RDF><cc:Work
         rdf:about=""><dc:format>image/svg+xml</dc:format><dc:type
           rdf:resource="http://purl.org/dc/dcmitype/StillImage" /><dc:title></dc:title></cc:Work></rdf:RDF></metadata><defs
     id="defs6"><clipPath
       clipPathUnits="userSpaceOnUse"
       id="clipPath16"><path
         d="m 0,794.96 792,0 L 792,0 0,0 0,794.96 Z"
         id="path18"
         inkscape:connector-curvature="0" /></clipPath></defs><sodipodi:namedview
     pagecolor="#ffffff"
     bordercolor="#666666"
     borderopacity="1"
     objecttolerance="10"
     gridtolerance="10"
     guidetolerance="10"
     inkscape:pageopacity="0"
     inkscape:pageshadow="2"
     inkscape:window-width="1366"
     inkscape:window-height="741"
     id="namedview4"
     showgrid="false"
     inkscape:zoom="0.23749622"
     inkscape:cx="33.940037"
     inkscape:cy="496.85001"
     inkscape:window-x="0"
     inkscape:window-y="0"
     inkscape:window-maximized="1"
     inkscape:current-layer="g10" /><g
     id="g10"
     inkscape:groupmode="layer"
     inkscape:label="sciencehacklogo"
     transform="matrix(1.25,0,0,-1.25,0,993.7)"><g
       id="g12"><g
         id="g14"
         clip-path="url(#clipPath16)"><g
           id="g20"
           transform="translate(394.5317,66.123)"><path
             d="m 0,0 c -89.194,0 -173.049,34.734 -236.118,97.804 -63.069,63.069 -97.803,146.924 -97.803,236.116 0,89.194 34.734,173.049 97.803,236.118 63.069,63.069 146.924,97.803 236.118,97.803 89.194,0 173.048,-34.734 236.118,-97.803 C 299.187,506.969 333.92,423.114 333.92,333.92 333.92,244.728 299.187,160.873 236.118,97.804 173.048,34.734 89.193,0 0,0"
             style="fill:#ffffff;fill-opacity:1;fill-rule:nonzero;stroke:none"
             id="path22"
             inkscape:connector-curvature="0" /></g><g
           id="g24"
           transform="translate(394.5316,767.9643)"><path
             d="m 0,0 c -203.198,0 -367.921,-164.724 -367.921,-367.921 0,-203.196 164.723,-367.92 367.921,-367.92 203.197,0 367.921,164.724 367.921,367.92 C 367.921,-164.724 203.197,0 0,0 m 0,-68 c 40.519,0 79.79,-7.92 116.722,-23.541 35.706,-15.103 67.788,-36.738 95.354,-64.304 27.566,-27.566 49.201,-59.648 64.303,-95.354 15.621,-36.932 23.542,-76.203 23.542,-116.722 0,-40.518 -7.921,-79.789 -23.542,-116.721 -15.102,-35.706 -36.737,-67.788 -64.303,-95.354 -27.567,-27.566 -59.648,-49.201 -95.354,-64.304 C 79.79,-659.921 40.519,-667.841 0,-667.841 c -40.519,0 -79.79,7.92 -116.722,23.541 -35.706,15.103 -67.788,36.738 -95.354,64.304 -27.566,27.566 -49.201,59.648 -64.303,95.354 -15.621,36.932 -23.542,76.203 -23.542,116.721 0,40.519 7.921,79.79 23.542,116.722 15.102,35.706 36.737,67.788 64.303,95.354 27.566,27.566 59.648,49.201 95.354,64.304 C -79.79,-75.92 -40.519,-68 0,-68"
             style="fill:#000000;fill-opacity:1;fill-rule:nonzero;stroke:none"
             id="path26"
             inkscape:connector-curvature="0" /></g><g
           id="g28"
           transform="translate(394.873,104.0703)"><path
             d="m 0,0 c -23.625,0 -47.28,30.825 -64.897,84.571 -18.444,56.269 -28.602,131.178 -28.602,210.929 0,79.751 10.158,154.66 28.602,210.928 C -47.28,560.175 -23.625,591 0,591 23.627,591 47.282,560.175 64.9,506.428 83.344,450.16 93.502,375.251 93.502,295.5 93.502,215.749 83.344,140.84 64.9,84.571 47.282,30.825 23.627,0 0,0"
             style="fill:#ffffff;fill-opacity:1;fill-rule:nonzero;stroke:none"
             id="path30"
             inkscape:connector-curvature="0" /></g><g
           id="g32"
           transform="translate(394.873,700.0703)"><path
             d="m 0,0 c -54.397,0 -98.499,-134.539 -98.499,-300.5 0,-165.962 44.102,-300.5 98.499,-300.5 54.4,0 98.502,134.538 98.502,300.5 C 98.502,-134.539 54.4,0 0,0 m 0,-10 c 10.045,0 20.285,-6.642 30.437,-19.74 10.871,-14.028 21.145,-35.256 29.711,-61.389 18.285,-55.779 28.354,-130.135 28.354,-209.371 0,-79.236 -10.069,-153.593 -28.354,-209.371 -8.566,-26.133 -18.84,-47.361 -29.711,-61.389 C 20.285,-584.358 10.045,-591 0,-591 c -10.044,0 -20.284,6.642 -30.435,19.74 -10.871,14.028 -21.144,35.256 -29.711,61.389 -18.284,55.779 -28.353,130.135 -28.353,209.371 0,79.236 10.069,153.592 28.353,209.371 8.567,26.133 18.84,47.361 29.711,61.389 C -20.284,-16.642 -10.044,-10 0,-10"
             style="fill:#000000;fill-opacity:1;fill-rule:nonzero;stroke:none"
             id="path34"
             inkscape:connector-curvature="0" /></g><g
           id="g36"
           transform="translate(214.6294,179.9014)"><path
             d="m 0,0 c -12.598,0 -22.256,3.271 -28.706,9.72 -16.706,16.706 -11.635,55.228 13.912,105.691 26.746,52.829 72.532,112.981 128.924,169.373 45.402,45.401 93.285,83.996 138.475,111.611 43.208,26.403 81.522,40.944 107.887,40.944 12.596,0 22.254,-3.27 28.703,-9.719 16.706,-16.707 11.636,-55.23 -13.911,-105.693 C 348.539,269.098 302.752,208.947 246.361,152.554 200.958,107.152 153.075,68.559 107.886,40.944 64.679,14.541 26.364,0 0,0"
             style="fill:#ffffff;fill-opacity:1;fill-rule:nonzero;stroke:none"
             id="path38"
             inkscape:connector-curvature="0" /></g><g
           id="g40"
           transform="translate(575.1211,622.2407)"><path
             d="m 0,0 c -55.672,-0.009 -155.68,-59.803 -249.897,-154.02 -117.353,-117.352 -181.301,-243.67 -142.836,-282.135 7.583,-7.583 18.571,-11.184 32.241,-11.184 55.672,0 155.678,59.801 249.896,154.018 C 6.756,-175.968 70.705,-49.651 32.238,-11.184 24.655,-3.601 13.67,0.002 0,0 m 0.012,0 0,-10 c 11.215,0 19.677,-2.777 25.155,-8.254 7.104,-7.103 9.647,-19.041 7.563,-35.482 -2.231,-17.606 -9.977,-39.881 -22.399,-64.417 -26.513,-52.37 -71.97,-112.068 -127.998,-168.096 -45.127,-45.127 -92.69,-83.468 -137.546,-110.879 -42.433,-25.931 -79.822,-40.211 -105.279,-40.211 -11.224,0 -19.692,2.777 -25.17,8.256 -7.103,7.102 -9.647,19.039 -7.563,35.479 2.232,17.606 9.978,39.881 22.4,64.417 26.513,52.37 71.971,112.068 127.999,168.096 45.123,45.123 92.686,83.464 137.546,110.876 42.432,25.929 79.822,40.211 105.281,40.215 L 0.012,0"
             style="fill:#ff0000;fill-opacity:1;fill-rule:nonzero;stroke:none"
             id="path42"
             inkscape:connector-curvature="0" /></g><g
           id="g44"
           transform="translate(575.1201,180.9004)"><path
             d="m 0,0 c -26.363,0 -64.677,14.54 -107.882,40.942 -45.189,27.614 -93.074,66.209 -138.478,111.613 -56.393,56.392 -102.179,116.544 -128.925,169.373 -25.547,50.462 -30.618,88.985 -13.912,105.691 6.45,6.45 16.108,9.72 28.706,9.72 26.364,0 64.678,-14.54 107.883,-40.942 45.189,-27.613 93.073,-66.209 138.477,-111.612 C -57.738,228.392 -11.952,168.241 14.794,115.411 40.341,64.949 45.41,26.426 28.704,9.719 22.255,3.27 12.598,0 0,0"
             style="fill:#ffffff;fill-opacity:1;fill-rule:nonzero;stroke:none"
             id="path46"
             inkscape:connector-curvature="0" /></g><g
           id="g48"
           transform="translate(214.6294,623.2392)"><path
             d="m 0,0 c -13.665,0 -24.661,-3.604 -32.242,-11.185 -38.464,-38.464 25.484,-164.782 142.837,-282.134 94.225,-94.225 194.228,-154.02 249.896,-154.02 13.665,0 24.658,3.603 32.239,11.184 38.467,38.467 -25.482,164.784 -142.835,282.137 C 155.671,-59.794 55.669,0.002 0,0 m 0.002,-10 c 25.457,0 62.845,-14.28 105.277,-40.21 44.856,-27.411 92.418,-65.752 137.545,-110.88 56.029,-56.028 101.486,-115.725 128,-168.096 12.421,-24.537 20.167,-46.811 22.398,-64.418 2.084,-16.44 -0.46,-28.377 -7.563,-35.48 -5.478,-5.477 -13.946,-8.255 -25.168,-8.255 -25.456,0 -62.843,14.279 -105.275,40.209 -44.857,27.411 -92.422,65.753 -137.55,110.882 -56.028,56.028 -101.486,115.726 -127.999,168.096 -12.422,24.536 -20.168,46.811 -22.4,64.417 -2.084,16.44 0.46,28.377 7.562,35.479 C -19.693,-12.778 -11.224,-10 0,-10 l 0.002,0"
             style="fill:#000000;fill-opacity:1;fill-rule:nonzero;stroke:none"
             id="path50"
             inkscape:connector-curvature="0" /></g><g
           id="g52"
           transform="translate(394.8745,498.0708)"><path
             d="m 0,0 c -165.962,0 -300.5,-44.102 -300.5,-98.499 10e-4,-54.401 134.538,-98.501 300.501,-98.502 165.96,0.001 300.5,44.101 300.5,98.502 C 300.501,-44.102 165.961,0 0,0 m 0.003,-10 c 79.229,0 153.583,-10.07 209.365,-28.354 26.133,-8.567 47.362,-18.841 61.391,-29.711 13.099,-10.151 19.742,-20.391 19.742,-30.434 0,-10.044 -6.642,-20.286 -19.741,-30.437 -14.027,-10.871 -35.256,-21.146 -61.389,-29.712 -55.778,-18.283 -130.134,-28.353 -209.37,-28.353 -79.237,0 -153.594,10.07 -209.372,28.353 -26.133,8.566 -47.361,18.841 -61.388,29.712 -13.099,10.151 -19.741,20.393 -19.741,30.437 0,10.044 6.642,20.284 19.74,30.435 14.028,10.871 35.256,21.145 61.389,29.711 C -153.592,-20.069 -79.236,-10 0,-10 l 0.003,0"
             style="fill:#000000;fill-opacity:1;fill-rule:nonzero;stroke:none"
             id="path54"
             inkscape:connector-curvature="0" /></g><g
           id="g56"
           transform="translate(300.5,394.0703)"><path
             d="m 0,0 c 0,0 22,206.5 95,204 0,0 67.667,15 94.334,-204.333 0,0 70.666,-34 51.666,-194.667 l -45,1 c 0,0 -3,68.333 -9,79 0,0 -11.666,-21.667 -71.666,-29.667 0,0 -2.929,-50 -4.929,-51.333 -2,-1.333 -31.998,0 -31.998,0 0,0 -5.74,47.333 -5.074,50 0.667,2.667 -48,3.333 -72,32 0,0 -11.75,-70 -9.083,-82 l -43.176,0 C -50.926,-196 -76,-52.666 0,0"
             style="fill:#000000;fill-opacity:1;fill-rule:nonzero;stroke:none"
             id="path58"
             inkscape:connector-curvature="0" /></g><g
           id="g60"
           transform="translate(575.1211,622.2407)"><path
             d="m 0,0 c -55.672,-0.009 -155.68,-59.803 -249.897,-154.02 -117.353,-117.352 -181.301,-243.67 -142.836,-282.135 7.583,-7.583 18.571,-11.184 32.241,-11.184 55.672,0 155.678,59.801 249.896,154.018 C 6.756,-175.968 70.705,-49.651 32.238,-11.184 24.655,-3.601 13.67,0.002 0,0 m 0.012,0 0,-10 c 11.215,0 19.677,-2.777 25.155,-8.254 7.104,-7.103 9.647,-19.041 7.563,-35.482 -2.231,-17.606 -9.977,-39.881 -22.399,-64.417 -26.513,-52.37 -71.97,-112.068 -127.998,-168.096 -45.127,-45.127 -92.69,-83.468 -137.546,-110.879 -42.433,-25.931 -79.822,-40.211 -105.279,-40.211 -11.224,0 -19.692,2.777 -25.17,8.256 -7.103,7.102 -9.647,19.039 -7.563,35.479 2.232,17.606 9.978,39.881 22.4,64.417 26.513,52.37 71.971,112.068 127.999,168.096 45.123,45.123 92.686,83.464 137.546,110.876 42.432,25.929 79.822,40.211 105.281,40.215 L 0.012,0"
             style="fill:#000000;fill-opacity:1;fill-rule:nonzero;stroke:none"
             id="path62"
             inkscape:connector-curvature="0" /></g></g></g></g></svg>